<svg xmlns="http://www.w3.org/2000/svg" viewBox="0 0 800 600">
  <defs>
    <linearGradient id="grad1" x1="0%" y1="0%" x2="100%" y2="100%">
      <stop offset="0%" style="stop-color:#646cff;stop-opacity:1" />
      <stop offset="100%" style="stop-color:#a488ff;stop-opacity:1" />
    </linearGradient>
  </defs>
  
  <!-- Background Elements -->
  <rect x="0" y="0" width="800" height="600" fill="#1a1a1a" opacity="0.05" rx="20" ry="20"/>
  
  <!-- Components -->
  <g transform="translate(100, 150)">
    <!-- Header Component -->
    <rect x="0" y="0" width="600" height="70" rx="10" fill="url(#grad1)" opacity="0.8"/>
    <rect x="20" y="25" width="120" height="20" rx="5" fill="white" opacity="0.9"/>
    <rect x="350" y="25" width="60" height="20" rx="5" fill="white" opacity="0.5"/>
    <rect x="430" y="25" width="60" height="20" rx="5" fill="white" opacity="0.5"/>
    <rect x="510" y="25" width="60" height="20" rx="5" fill="white" opacity="0.5"/>
    
    <!-- Sidebar Component -->
    <rect x="0" y="90" width="150" height="300" rx="10" fill="url(#grad1)" opacity="0.2"/>
    <rect x="20" y="120" width="110" height="20" rx="5" fill="#646cff" opacity="0.8"/>
    <rect x="20" y="160" width="110" height="15" rx="5" fill="white" opacity="0.4"/>
    <rect x="20" y="190" width="110" height="15" rx="5" fill="white" opacity="0.4"/>
    <rect x="20" y="220" width="110" height="15" rx="5" fill="white" opacity="0.4"/>
    <rect x="20" y="250" width="110" height="15" rx="5" fill="white" opacity="0.4"/>
    
    <!-- Main Content Component -->
    <rect x="170" y="90" width="430" height="300" rx="10" fill="white" opacity="0.1"/>
    <rect x="200" y="120" width="370" height="30" rx="5" fill="white" opacity="0.4"/>
    <rect x="200" y="170" width="150" height="80" rx="5" fill="url(#grad1)" opacity="0.3"/>
    <rect x="370" y="170" width="150" height="80" rx="5" fill="url(#grad1)" opacity="0.3"/>
    <rect x="200" y="270" width="320" height="15" rx="5" fill="white" opacity="0.3"/>
    <rect x="200" y="300" width="370" height="15" rx="5" fill="white" opacity="0.3"/>
    <rect x="200" y="330" width="280" height="15" rx="5" fill="white" opacity="0.3"/>
    
    <!-- Footer Component -->
    <rect x="0" y="410" width="600" height="60" rx="10" fill="url(#grad1)" opacity="0.2"/>
    <rect x="20" y="430" width="100" height="20" rx="5" fill="white" opacity="0.6"/>
    <rect x="480" y="430" width="100" height="20" rx="5" fill="white" opacity="0.3"/>
  </g>
  
  <!-- Decorative Elements -->
  <circle cx="750" cy="100" r="40" fill="url(#grad1)" opacity="0.5"/>
  <circle cx="700" cy="500" r="60" fill="url(#grad1)" opacity="0.3"/>
  <circle cx="80" cy="520" r="30" fill="url(#grad1)" opacity="0.4"/>
</svg> 