<svg xmlns="http://www.w3.org/2000/svg" viewBox="0 0 400 300">
  <defs>
    <linearGradient id="grad1" x1="0%" y1="0%" x2="100%" y2="100%">
      <stop offset="0%" style="stop-color:#646cff;stop-opacity:1" />
      <stop offset="100%" style="stop-color:#a488ff;stop-opacity:1" />
    </linearGradient>
  </defs>
  
  <!-- Background -->
  <rect x="0" y="0" width="400" height="300" rx="10" fill="#1a1a1a" opacity="0.05"/>
  
  <!-- Header -->
  <rect x="10" y="10" width="380" height="40" rx="5" fill="url(#grad1)" opacity="0.7"/>
  <rect x="25" y="22" width="80" height="16" rx="3" fill="white" opacity="0.9"/>
  <circle cx="350" cy="30" r="12" fill="white" opacity="0.6"/>
  <circle cx="320" cy="30" r="12" fill="white" opacity="0.4"/>
  
  <!-- Sidebar -->
  <rect x="10" y="60" width="90" height="230" rx="5" fill="url(#grad1)" opacity="0.2"/>
  <rect x="25" y="80" width="60" height="10" rx="2" fill="white" opacity="0.6"/>
  <rect x="25" y="100" width="60" height="10" rx="2" fill="white" opacity="0.4"/>
  <rect x="25" y="120" width="60" height="10" rx="2" fill="white" opacity="0.4"/>
  <rect x="25" y="140" width="60" height="10" rx="2" fill="white" opacity="0.4"/>
  <rect x="25" y="160" width="60" height="10" rx="2" fill="white" opacity="0.4"/>
  
  <!-- Main Content Area -->
  <rect x="110" y="60" width="280" height="110" rx="5" fill="white" opacity="0.1"/>
  <rect x="120" y="70" width="120" height="15" rx="2" fill="white" opacity="0.7"/>
  <rect x="120" y="95" width="260" height="65" rx="2" fill="url(#grad1)" opacity="0.15"/>
  
  <!-- Charts and Data -->
  <rect x="110" y="180" width="135" height="110" rx="5" fill="white" opacity="0.1"/>
  <rect x="120" y="190" width="70" height="10" rx="2" fill="white" opacity="0.7"/>
  <circle cx="177" cy="235" r="30" fill="url(#grad1)" opacity="0.3"/>
  <path d="M177 205 A30 30 0 0 1 207 235" fill="none" stroke="url(#grad1)" stroke-width="8"/>
  
  <rect x="255" y="180" width="135" height="110" rx="5" fill="white" opacity="0.1"/>
  <rect x="265" y="190" width="70" height="10" rx="2" fill="white" opacity="0.7"/>
  <rect x="265" y="215" width="115" height="10" rx="2" fill="url(#grad1)" opacity="0.3"/>
  <rect x="265" y="235" width="90" height="10" rx="2" fill="url(#grad1)" opacity="0.3"/>
  <rect x="265" y="255" width="70" height="10" rx="2" fill="url(#grad1)" opacity="0.3"/>
</svg> 