<svg xmlns="http://www.w3.org/2000/svg" viewBox="0 0 400 300">
  <defs>
    <linearGradient id="grad1" x1="0%" y1="0%" x2="100%" y2="100%">
      <stop offset="0%" style="stop-color:#646cff;stop-opacity:1" />
      <stop offset="100%" style="stop-color:#a488ff;stop-opacity:1" />
    </linearGradient>
  </defs>
  
  <!-- Background -->
  <rect x="0" y="0" width="400" height="300" rx="10" fill="#1a1a1a" opacity="0.05"/>
  
  <!-- Header -->
  <rect x="10" y="10" width="380" height="40" rx="5" fill="url(#grad1)" opacity="0.7"/>
  <rect x="25" y="22" width="80" height="16" rx="3" fill="white" opacity="0.9"/>
  
  <!-- Search -->
  <rect x="130" y="22" width="150" height="16" rx="8" fill="white" opacity="0.3"/>
  
  <!-- Cart -->
  <circle cx="350" cy="30" r="12" fill="white" opacity="0.6"/>
  <circle cx="320" cy="30" r="12" fill="white" opacity="0.4"/>
  
  <!-- Category Nav -->
  <rect x="10" y="60" width="380" height="30" rx="5" fill="url(#grad1)" opacity="0.3"/>
  <rect x="30" y="70" width="50" height="10" rx="2" fill="white" opacity="0.8"/>
  <rect x="100" y="70" width="50" height="10" rx="2" fill="white" opacity="0.8"/>
  <rect x="170" y="70" width="50" height="10" rx="2" fill="white" opacity="0.8"/>
  <rect x="240" y="70" width="50" height="10" rx="2" fill="white" opacity="0.8"/>
  <rect x="310" y="70" width="50" height="10" rx="2" fill="white" opacity="0.8"/>
  
  <!-- Filter Sidebar -->
  <rect x="10" y="100" width="90" height="190" rx="5" fill="white" opacity="0.1"/>
  <rect x="25" y="115" width="60" height="15" rx="2" fill="white" opacity="0.7"/>
  
  <!-- Filters -->
  <rect x="25" y="140" width="60" height="10" rx="2" fill="white" opacity="0.5"/>
  <rect x="30" y="155" width="5" height="5" rx="1" fill="white" opacity="0.8"/>
  <rect x="40" y="155" width="35" height="5" rx="1" fill="white" opacity="0.4"/>
  
  <rect x="30" y="170" width="5" height="5" rx="1" fill="white" opacity="0.8"/>
  <rect x="40" y="170" width="35" height="5" rx="1" fill="white" opacity="0.4"/>
  
  <rect x="30" y="185" width="5" height="5" rx="1" fill="white" opacity="0.8"/>
  <rect x="40" y="185" width="35" height="5" rx="1" fill="white" opacity="0.4"/>
  
  <rect x="25" y="210" width="60" height="10" rx="2" fill="white" opacity="0.5"/>
  
  <rect x="30" y="225" width="5" height="5" rx="1" fill="white" opacity="0.8"/>
  <rect x="40" y="225" width="35" height="5" rx="1" fill="white" opacity="0.4"/>
  
  <rect x="30" y="240" width="5" height="5" rx="1" fill="white" opacity="0.8"/>
  <rect x="40" y="240" width="35" height="5" rx="1" fill="white" opacity="0.4"/>
  
  <!-- Product Grid -->
  <rect x="110" y="100" width="280" height="190" rx="5" fill="white" opacity="0.1"/>
  
  <!-- Products -->
  <rect x="125" y="115" width="80" height="80" rx="5" fill="url(#grad1)" opacity="0.2"/>
  <rect x="125" y="205" width="80" height="10" rx="2" fill="white" opacity="0.6"/>
  <rect x="125" y="220" width="50" height="10" rx="2" fill="url(#grad1)" opacity="0.7"/>
  
  <rect x="215" y="115" width="80" height="80" rx="5" fill="url(#grad1)" opacity="0.2"/>
  <rect x="215" y="205" width="80" height="10" rx="2" fill="white" opacity="0.6"/>
  <rect x="215" y="220" width="50" height="10" rx="2" fill="url(#grad1)" opacity="0.7"/>
  
  <rect x="305" y="115" width="80" height="80" rx="5" fill="url(#grad1)" opacity="0.2"/>
  <rect x="305" y="205" width="80" height="10" rx="2" fill="white" opacity="0.6"/>
  <rect x="305" y="220" width="50" height="10" rx="2" fill="url(#grad1)" opacity="0.7"/>
  
  <!-- Pagination -->
  <circle cx="220" cy="270" r="10" fill="url(#grad1)" opacity="0.8"/>
  <circle cx="250" cy="270" r="10" fill="white" opacity="0.2"/>
  <circle cx="280" cy="270" r="10" fill="white" opacity="0.2"/>
</svg> 